<svg xmlns="http://www.w3.org/2000/svg" viewBox="0 0 820 165" width="820" height="165">
<rect width="820" height="165" fill="white"/>
<text x="200.0" y="18" font-size="13" font-family="sans-serif" font-weight="bold" text-anchor="middle">Top reason code (top 250)</text>
<text x="144" y="50" font-size="10" font-family="sans-serif" text-anchor="end">days_with_impressions</text>
<rect x="150" y="35" width="200.0" height="22" fill="#4C72B0"/>
<text x="355.0" y="50" font-size="10" font-family="sans-serif">194</text>
<text x="144" y="80" font-size="10" font-family="sans-serif" text-anchor="end">clicks_90d</text>
<rect x="150" y="65" width="56.7" height="22" fill="#4C72B0"/>
<text x="211.7" y="80" font-size="10" font-family="sans-serif">55</text>
<text x="144" y="110" font-size="10" font-family="sans-serif" text-anchor="end">clicks_last_30d</text>
<rect x="150" y="95" width="1.0" height="22" fill="#4C72B0"/>
<text x="156.0" y="110" font-size="10" font-family="sans-serif">1</text>
<text x="610.0" y="18" font-size="13" font-family="sans-serif" font-weight="bold" text-anchor="middle">Archetype (top 250)</text>
<text x="554" y="50" font-size="10" font-family="sans-serif" text-anchor="end">Keyword Article — age 91-180</text>
<rect x="560" y="35" width="200.0" height="22" fill="#DD8452"/>
<text x="765.0" y="50" font-size="10" font-family="sans-serif">152</text>
<text x="554" y="80" font-size="10" font-family="sans-serif" text-anchor="end">Keyword Article — age 181-365</text>
<rect x="560" y="65" width="69.7" height="22" fill="#DD8452"/>
<text x="634.7" y="80" font-size="10" font-family="sans-serif">53</text>
<text x="554" y="110" font-size="10" font-family="sans-serif" text-anchor="end">Keyword Article — age 365+</text>
<rect x="560" y="95" width="57.9" height="22" fill="#DD8452"/>
<text x="622.9" y="110" font-size="10" font-family="sans-serif">44</text>
<text x="554" y="140" font-size="10" font-family="sans-serif" text-anchor="end">Keyword Article — age 31-90</text>
<rect x="560" y="125" width="1.3" height="22" fill="#DD8452"/>
<text x="566.3" y="140" font-size="10" font-family="sans-serif">1</text>
</svg>